<svg xmlns="http://www.w3.org/2000/svg" viewBox="0 0 1280 800" width="1280" height="800">
  <defs>
    <style>
      .sans { font-family: Inter, 'Segoe UI', sans-serif; }
      .mono { font-family: 'JetBrains Mono', Menlo, Consolas, monospace; }
    </style>
  </defs>

  <rect width="1280" height="800" fill="#000000"/>

  <!-- Top app bar -->
  <rect x="0" y="0" width="1280" height="56" fill="#0A0A0A"/>
  <line x1="0" y1="56" x2="1280" y2="56" stroke="#222222"/>

  <rect x="16" y="14" width="28" height="28" fill="#000000" stroke="#4ECDC4" stroke-width="1.5"/>
  <text x="30" y="34" font-size="18" font-weight="700" fill="#4ECDC4" text-anchor="middle" class="sans">H</text>
  <text x="56" y="36" font-size="13" font-weight="700" fill="#FFFFFF" letter-spacing="3" class="sans">AI COPILOT</text>

  <!-- Risk legend in header -->
  <g class="sans" font-size="10" font-weight="700" letter-spacing="1">
    <rect x="200" y="20" width="74" height="16" fill="#000000" stroke="#00FF88"/><text x="237" y="32" fill="#00FF88" text-anchor="middle">SAFE</text>
    <rect x="282" y="20" width="74" height="16" fill="#000000" stroke="#FFB000"/><text x="319" y="32" fill="#FFB000" text-anchor="middle">REVIEW</text>
    <rect x="364" y="20" width="74" height="16" fill="#000000" stroke="#FF0000"/><text x="401" y="32" fill="#FF0000" text-anchor="middle">DANGER</text>
  </g>

  <!-- Status pill -->
  <rect x="980" y="16" width="186" height="24" fill="#000000" stroke="#00FF88" stroke-width="1"/>
  <circle cx="994" cy="28" r="3" fill="#00FF88"/>
  <text x="1004" y="32" font-size="11" font-weight="700" fill="#00FF88" letter-spacing="1" class="mono">LOCAL · ONLINE · GEMMA3</text>

  <!-- Close X -->
  <text x="1232" y="36" font-size="20" fill="#FFFFFF" text-anchor="middle" class="mono">×</text>

  <!-- Left sidebar: chat sessions drawer -->
  <rect x="0" y="56" width="280" height="744" fill="#050505"/>
  <line x1="280" y1="56" x2="280" y2="800" stroke="#222222"/>

  <text x="16" y="86" font-size="11" font-weight="700" fill="#888888" letter-spacing="2" class="sans">CHAT SESSIONS</text>

  <!-- New chat button -->
  <rect x="16" y="100" width="248" height="36" fill="#000000" stroke="#FFFFFF"/>
  <text x="32" y="124" font-size="14" font-weight="700" fill="#FFFFFF" class="mono">+</text>
  <text x="56" y="123" font-size="11" font-weight="700" fill="#FFFFFF" letter-spacing="2" class="sans">NEW CHAT</text>

  <!-- Active session -->
  <rect x="16" y="152" width="248" height="56" fill="#0A0A0A" stroke="#4ECDC4"/>
  <text x="28" y="172" font-size="12" font-weight="700" fill="#FFFFFF" class="sans">Nginx 502 on prod-edge-01</text>
  <text x="28" y="190" font-size="10" fill="#888888" class="mono">12 messages · just now</text>
  <rect x="28" y="196" width="42" height="14" fill="#000000" stroke="#4ECDC4"/>
  <text x="49" y="206" font-size="9" font-weight="700" fill="#4ECDC4" letter-spacing="1" text-anchor="middle" class="mono">LOCAL</text>

  <!-- Other sessions -->
  <g class="sans">
    <rect x="16" y="220" width="248" height="48" fill="#050505" stroke="#222222"/>
    <text x="28" y="238" font-size="12" fill="#FFFFFF">Postgres slow query plan</text>
    <text x="28" y="256" font-size="10" fill="#888888" class="mono">8 messages · 2h ago</text>

    <rect x="16" y="276" width="248" height="48" fill="#050505" stroke="#222222"/>
    <text x="28" y="294" font-size="12" fill="#FFFFFF">Docker: pull image fails</text>
    <text x="28" y="312" font-size="10" fill="#888888" class="mono">4 messages · yesterday</text>

    <rect x="16" y="332" width="248" height="48" fill="#050505" stroke="#222222"/>
    <text x="28" y="350" font-size="12" fill="#FFFFFF">UFW rules for port 5432</text>
    <text x="28" y="368" font-size="10" fill="#888888" class="mono">15 messages · yesterday</text>

    <rect x="16" y="388" width="248" height="48" fill="#050505" stroke="#222222"/>
    <text x="28" y="406" font-size="12" fill="#FFFFFF">systemd timer cron migration</text>
    <text x="28" y="424" font-size="10" fill="#888888" class="mono">6 messages · 2 days ago</text>

    <rect x="16" y="444" width="248" height="48" fill="#050505" stroke="#222222"/>
    <text x="28" y="462" font-size="12" fill="#FFFFFF">Tailscale subnet routing</text>
    <text x="28" y="480" font-size="10" fill="#888888" class="mono">11 messages · 3 days ago</text>
  </g>

  <!-- Right pane: messages -->
  <!-- Context chip -->
  <rect x="296" y="72" width="968" height="32" fill="#0A0A0A" stroke="#222222"/>
  <text x="312" y="92" font-size="11" font-weight="700" fill="#888888" letter-spacing="1" class="mono">CONTEXT</text>
  <text x="378" y="92" font-size="11" fill="#FFFFFF" class="mono">prod-edge-01 · ssh session · last 80 lines of /var/log/nginx/error.log attached</text>

  <!-- User message -->
  <text x="296" y="138" font-size="10" font-weight="700" fill="#888888" letter-spacing="2" class="sans">YOU · 06:58:42</text>
  <rect x="296" y="146" width="968" height="80" fill="#0A0A0A" stroke="#222222"/>
  <text x="316" y="172" font-size="13" fill="#FFFFFF" class="sans">nginx is throwing 502s on /api routes since the last deploy. The upstream</text>
  <text x="316" y="192" font-size="13" fill="#FFFFFF" class="sans">is gunicorn on 127.0.0.1:8001. Logs above. What's the most likely cause and</text>
  <text x="316" y="212" font-size="13" fill="#FFFFFF" class="sans">how do I confirm before restarting anything?</text>

  <!-- Assistant message header -->
  <text x="296" y="258" font-size="10" font-weight="700" fill="#00FF88" letter-spacing="2" class="sans">HAMMA · GEMMA3 · STREAMING…</text>

  <!-- Assistant message body -->
  <rect x="296" y="266" width="968" height="350" fill="#000000" stroke="#00FF88"/>
  <g class="sans" font-size="13" fill="#FFFFFF">
    <text x="316" y="292"><tspan font-weight="700">Most likely cause:</tspan> gunicorn is up but no workers are accepting connections —</text>
    <text x="316" y="312">classic post-deploy symptom. The error log line `connect() failed (111: Connection</text>
    <text x="316" y="332">refused) while connecting to upstream` confirms nginx is reaching a closed socket.</text>

    <text x="316" y="362" font-weight="700">Three checks before any restart:</text>

    <text x="316" y="386">1. Confirm gunicorn is actually listening on 8001:</text>
    <rect x="316" y="394" width="900" height="32" fill="#050505" stroke="#222222"/>
    <text x="328" y="415" font-size="12" fill="#FFFFFF" class="mono">ss -tlnp | grep :8001</text>
    <rect x="1140" y="398" width="68" height="22" fill="#000000" stroke="#00FF88"/>
    <text x="1174" y="414" font-size="10" font-weight="700" fill="#00FF88" letter-spacing="1" text-anchor="middle" class="mono">SAFE · RUN</text>

    <text x="316" y="446">2. Check the gunicorn unit hasn't crashed:</text>
    <rect x="316" y="454" width="900" height="32" fill="#050505" stroke="#222222"/>
    <text x="328" y="475" font-size="12" fill="#FFFFFF" class="mono">systemctl status gunicorn --no-pager</text>
    <rect x="1140" y="458" width="68" height="22" fill="#000000" stroke="#00FF88"/>
    <text x="1174" y="474" font-size="10" font-weight="700" fill="#00FF88" letter-spacing="1" text-anchor="middle" class="mono">SAFE · RUN</text>

    <text x="316" y="506">3. Read the worker boot trace (last 40 lines):</text>
    <rect x="316" y="514" width="900" height="32" fill="#050505" stroke="#222222"/>
    <text x="328" y="535" font-size="12" fill="#FFFFFF" class="mono">journalctl -u gunicorn -n 40 --no-pager</text>
    <rect x="1140" y="518" width="68" height="22" fill="#000000" stroke="#00FF88"/>
    <text x="1174" y="534" font-size="10" font-weight="700" fill="#00FF88" letter-spacing="1" text-anchor="middle" class="mono">SAFE · RUN</text>

    <text x="316" y="572">If (2) shows `failed (Result: exit-code)`, paste the journalctl output back</text>
    <text x="316" y="592">and I'll narrow it down before we touch a restart<tspan font-weight="700">▌</tspan></text>
  </g>

  <!-- Input area -->
  <rect x="296" y="640" width="968" height="64" fill="#0A0A0A" stroke="#222222"/>
  <text x="312" y="678" font-size="13" fill="#888888" class="sans">Ask anything · the local model never leaves your device…</text>
  <rect x="1198" y="654" width="48" height="36" fill="#FFFFFF"/>
  <text x="1222" y="678" font-size="14" font-weight="700" fill="#000000" text-anchor="middle" class="sans">↑</text>

  <!-- Footer privacy strip -->
  <rect x="296" y="720" width="968" height="56" fill="#000000" stroke="#222222"/>
  <circle cx="316" cy="748" r="4" fill="#00FF88"/>
  <text x="328" y="744" font-size="11" font-weight="700" fill="#00FF88" letter-spacing="1" class="mono">ZERO-TRUST · LOOPBACK ONLY</text>
  <text x="328" y="762" font-size="10" fill="#888888" class="sans">Endpoint: 127.0.0.1:11434 · ollama 0.4.7 · prompt + reply never leave this device</text>
</svg>
