<svg xmlns="http://www.w3.org/2000/svg" viewBox="0 0 1280 800" width="1280" height="800">
  <defs>
    <style>
      .sans { font-family: Inter, 'Segoe UI', sans-serif; }
      .mono { font-family: 'JetBrains Mono', Menlo, Consolas, monospace; }
    </style>
  </defs>

  <rect width="1280" height="800" fill="#000000"/>

  <!-- Top app bar -->
  <rect x="0" y="0" width="1280" height="56" fill="#0A0A0A"/>
  <line x1="0" y1="56" x2="1280" y2="56" stroke="#222222"/>
  <text x="16" y="36" font-size="20" font-weight="700" fill="#FFFFFF" class="sans">←</text>
  <text x="48" y="36" font-size="13" font-weight="700" fill="#FFFFFF" letter-spacing="3" class="sans">FIRST-RUN SETUP · LOCAL AI</text>

  <!-- Status pill (offline — engine not yet running) -->
  <rect x="980" y="16" width="186" height="24" fill="#000000" stroke="#FFB000"/>
  <text x="1004" y="32" font-size="11" font-weight="700" fill="#FFB000" letter-spacing="1" class="mono">LOCAL · CONNECTING…</text>

  <!-- Step indicator -->
  <g class="sans" font-weight="700" letter-spacing="2">
    <rect x="0" y="56" width="1280" height="80" fill="#050505"/>
    <line x1="0" y1="136" x2="1280" y2="136" stroke="#222222"/>

    <!-- Step 1 (done) -->
    <rect x="280" y="84" width="40" height="40" fill="#000000" stroke="#00FF88" stroke-width="2"/>
    <text x="300" y="111" font-size="16" fill="#00FF88" text-anchor="middle">✓</text>
    <text x="300" y="142" font-size="10" fill="#00FF88" text-anchor="middle">INSTALL</text>

    <line x1="320" y1="104" x2="500" y2="104" stroke="#00FF88" stroke-width="2"/>

    <!-- Step 2 (active) -->
    <rect x="500" y="84" width="40" height="40" fill="#000000" stroke="#FFFFFF" stroke-width="2"/>
    <text x="520" y="113" font-size="16" fill="#FFFFFF" text-anchor="middle">2</text>
    <text x="520" y="142" font-size="10" fill="#FFFFFF" text-anchor="middle">PULL MODEL</text>

    <line x1="540" y1="104" x2="720" y2="104" stroke="#222222" stroke-width="2"/>

    <!-- Step 3 (todo) -->
    <rect x="720" y="84" width="40" height="40" fill="#000000" stroke="#888888" stroke-width="2"/>
    <text x="740" y="113" font-size="16" fill="#888888" text-anchor="middle">3</text>
    <text x="740" y="142" font-size="10" fill="#888888" text-anchor="middle">DONE</text>
  </g>

  <!-- Card -->
  <rect x="160" y="180" width="960" height="500" fill="#0A0A0A" stroke="#222222"/>

  <text x="190" y="226" font-size="22" font-weight="700" fill="#FFFFFF" letter-spacing="1" class="sans">Pull a starter model</text>
  <text x="190" y="252" font-size="12" fill="#888888" class="sans">Hamma talks to your engine over the loopback interface only — your prompts never leave this device.</text>

  <!-- OS chip strip -->
  <g class="sans" font-size="10" font-weight="700" letter-spacing="2">
    <rect x="190" y="276" width="80" height="24" fill="#000000" stroke="#FFFFFF"/><text x="230" y="292" fill="#FFFFFF" text-anchor="middle">macOS</text>
    <rect x="278" y="276" width="80" height="24" fill="#FFFFFF"/><text x="318" y="292" fill="#000000" text-anchor="middle">LINUX</text>
    <rect x="366" y="276" width="80" height="24" fill="#000000" stroke="#FFFFFF"/><text x="406" y="292" fill="#FFFFFF" text-anchor="middle">WINDOWS</text>
    <rect x="454" y="276" width="80" height="24" fill="#000000" stroke="#FFFFFF"/><text x="494" y="292" fill="#FFFFFF" text-anchor="middle">ANDROID</text>
  </g>

  <!-- Recommended model row -->
  <text x="190" y="338" font-size="11" font-weight="700" fill="#888888" letter-spacing="2" class="sans">RECOMMENDED FOR YOUR HARDWARE</text>
  <rect x="190" y="350" width="900" height="78" fill="#000000" stroke="#4ECDC4"/>
  <text x="208" y="380" font-size="18" font-weight="700" fill="#FFFFFF" class="sans">gemma3</text>
  <text x="208" y="404" font-size="11" fill="#888888" class="mono">7B · Q4_K_M · 4.8 GB · context 8 K · multimodal · best default</text>
  <text x="208" y="420" font-size="10" fill="#4ECDC4" letter-spacing="1" class="sans">FAST ON 16 GB RAM · ~38 tokens/s on this device</text>
  <rect x="980" y="372" width="92" height="36" fill="#FFFFFF"/>
  <text x="1026" y="396" font-size="12" font-weight="700" fill="#000000" letter-spacing="2" text-anchor="middle" class="sans">↓ PULL</text>

  <!-- Command snippet -->
  <text x="190" y="464" font-size="11" font-weight="700" fill="#888888" letter-spacing="2" class="sans">OR PULL FROM YOUR TERMINAL (LINUX)</text>
  <rect x="190" y="476" width="900" height="80" fill="#050505" stroke="#222222"/>
  <text x="208" y="504" font-size="13" fill="#888888" class="mono"># 1. Start the Ollama daemon</text>
  <text x="208" y="524" font-size="13" fill="#FFFFFF" class="mono">$ </text><text x="226" y="524" font-size="13" fill="#FFFFFF" class="mono">systemctl --user start ollama</text>
  <text x="208" y="544" font-size="13" fill="#FFFFFF" class="mono">$ </text><text x="226" y="544" font-size="13" fill="#FFFFFF" class="mono">ollama pull gemma3</text>

  <text x="1064" y="500" font-size="10" font-weight="700" fill="#FFFFFF" letter-spacing="2" text-anchor="end" class="sans">COPY</text>

  <!-- Privacy reassurance -->
  <rect x="190" y="588" width="900" height="60" fill="#000000" stroke="#00FF88"/>
  <text x="208" y="614" font-size="11" font-weight="700" fill="#00FF88" letter-spacing="2" class="mono">ZERO-TRUST GUARANTEE</text>
  <text x="208" y="636" font-size="11" fill="#FFFFFF" class="sans">Endpoint locked to 127.0.0.0/8 · ::1 · localhost. Runtime guard rejects anything else and the test suite asserts it.</text>

  <!-- Footer buttons -->
  <g class="sans" font-size="11" font-weight="700" letter-spacing="2">
    <rect x="190" y="710" width="120" height="40" fill="#000000" stroke="#FFFFFF"/><text x="250" y="734" fill="#FFFFFF" text-anchor="middle">← BACK</text>
    <rect x="970" y="710" width="120" height="40" fill="#FFFFFF"/><text x="1030" y="734" fill="#000000" text-anchor="middle">NEXT →</text>
  </g>
</svg>
